<svg version="1.1" xmlns="http://www.w3.org/2000/svg" xmlns:xlink="http://www.w3.org/1999/xlink" width="400.000000pt" height="400.000000pt" viewBox="0,0,256,256"><g transform="translate(-110.08,-110.08) scale(1.86,1.86)"><g fill="#2e8555" fill-rule="nonzero" stroke="none" stroke-width="1" stroke-linecap="butt" stroke-linejoin="miter" stroke-miterlimit="10" stroke-dasharray="" stroke-dashoffset="0" font-family="none" font-weight="none" font-size="none" text-anchor="none" style="mix-blend-mode: normal"><g transform="translate(0,0)"><g><g transform="translate(-0.37189,-5.46104) scale(0.64,0.64)"><g transform="translate(0,400) scale(0.1,-0.1)"><path d="M1905,2953c-43,-3 -118,-20 -150,-33c-11,-4 -48,-18 -83,-30c-62,-21 -158,-77 -148,-87c2,-2 14,0 25,6c11,7 32,9 46,5c15,-4 25,-2 25,5c0,6 10,11 23,11c13,0 27,4 32,8c13,12 95,44 120,46c11,2 29,6 40,9c11,4 62,9 113,11c50,3 97,8 103,11c5,4 16,1 24,-5c8,-7 25,-10 37,-7c12,4 27,3 32,-2c17,-13 96,-30 96,-21c0,5 -6,11 -12,13c-7,2 0,3 17,1c16,-3 33,-11 38,-19c4,-8 20,-15 35,-15c15,0 36,-7 46,-15c12,-9 29,-12 44,-8c17,4 23,2 18,-6c-4,-7 0,-11 11,-11c11,0 28,-6 38,-14c11,-8 26,-11 34,-8c10,4 12,1 6,-8c-5,-9 -4,-11 3,-6c17,11 15,14 -20,32c-18,10 -37,23 -43,30c-13,17 -117,58 -197,78c-126,31 -228,40 -353,29zM2110,2920c-19,-13 -30,-13 -30,0c0,6 10,10 23,10c18,0 19,-2 7,-10zM2160,2925c0,-3 -2,-5 -5,-5c-3,0 -5,2 -5,5c0,3 2,5 5,5c3,0 5,-2 5,-5zM2193,2903c-7,-2 -19,-2 -25,0c-7,3 -2,5 12,5c14,0 19,-2 13,-5zM2450,2796c0,-7 18,-26 40,-41c93,-65 219,-225 295,-374c64,-127 88,-242 88,-411c0,-159 -18,-242 -83,-387c-41,-90 -37,-115 5,-28c120,249 136,481 51,731c-48,143 -152,311 -253,411c-35,34 -59,65 -53,68c5,3 16,3 23,-1c9,-5 9,-4 0,6c-9,10 -16,10 -26,2c-11,-9 -21,-6 -47,13c-39,29 -40,29 -40,11zM1450,2761c-33,-29 -39,-38 -23,-34c12,3 21,10 20,17c-1,6 4,10 11,9c6,-2 12,2 12,8c0,5 4,8 9,5c5,-3 12,1 15,10c3,8 11,12 17,8c8,-4 9,-3 5,4c-11,18 -17,15 -66,-27zM1511,2770c-23,-17 -47,-28 -53,-24c-6,4 -8,3 -5,-3c4,-6 -15,-31 -43,-55c-206,-183 -326,-497 -306,-805c8,-132 53,-313 77,-313c12,0 11,5 -5,44c-23,56 -45,167 -52,266c-24,348 127,677 399,870c44,31 58,50 39,50c-5,0 -28,-14 -51,-30zM2014,2763c-3,-15 -13,-33 -21,-40c-13,-10 -12,-15 10,-37c34,-34 43,-33 56,5c8,24 7,37 -4,59c-21,41 -33,45 -41,13zM1827,2748c9,-52 29,-67 44,-35c11,23 9,29 -12,46c-33,28 -39,26 -32,-11zM2183,2730c-44,-27 -47,-70 -5,-70c37,0 52,17 52,57c0,38 -4,40 -47,13zM1695,2707c-18,-45 -18,-48 -1,-72c12,-16 16,-17 30,-6c20,17 20,69 1,95c-14,18 -15,18 -30,-17zM1885,2711c-12,-53 26,-94 45,-48c8,21 9,21 9,-5c1,-17 9,-32 22,-39c20,-10 21,-9 16,10c-8,31 -1,26 24,-19c27,-47 39,-51 39,-12c0,30 -64,102 -91,102c-8,0 -20,9 -27,20c-17,28 -29,25 -37,-9zM2276,2728c-12,-40 -13,-77 -1,-103l13,-30l16,38c14,32 15,45 6,73c-12,34 -27,44 -34,22zM2612,2716c7,-8 17,-12 22,-9c4,3 2,9 -5,14c-22,13 -31,11 -17,-5zM1370,2704c-7,-8 -9,-14 -4,-14c5,0 -2,-7 -14,-16c-12,-8 -21,-23 -21,-32c1,-13 2,-14 6,-2c2,8 20,27 39,41c25,20 30,28 20,32c-8,3 -20,-1 -26,-9zM1390,2706c0,-3 -5,-8 -12,-12c-7,-4 -8,-3 -4,4c7,12 16,16 16,8zM2102,2713c-18,-7 -42,-57 -42,-87c0,-22 3,-24 23,-17c27,9 57,64 50,91c-5,21 -9,22 -31,13zM1781,2668c-12,-34 9,-83 32,-75c16,5 21,75 6,93c-17,21 -26,17 -38,-18zM2647,2689c7,-7 15,-10 18,-7c3,3 -2,9 -12,12c-14,6 -15,5 -6,-5zM1563,2635c11,-68 77,-108 77,-47c0,30 -17,50 -59,72c-24,12 -24,12 -18,-25zM1847,2649c-7,-28 7,-65 29,-73c20,-8 21,-7 25,19c3,20 -27,75 -41,75c-4,0 -10,-9 -13,-21zM2687,2648c47,-49 63,-68 63,-78c0,-5 5,-10 10,-10c6,0 10,-7 10,-15c0,-7 6,-18 14,-22c10,-6 61,-92 72,-123c1,-3 5,-15 9,-27c6,-20 25,-33 25,-17c0,12 -34,79 -48,97c-8,9 -12,17 -8,17c8,0 -32,61 -47,71c-5,3 -7,8 -5,11c4,7 -97,118 -108,118c-5,0 1,-10 13,-22zM2228,2643c-22,-5 -24,-55 -4,-72c21,-18 44,10 38,48c-2,17 -7,30 -11,30c-3,-1 -14,-3 -23,-6zM2090,2587c-50,-47 -66,-75 -94,-159c-3,-10 -9,-18 -14,-18c-11,0 -32,45 -32,69c0,23 -39,73 -51,66c-21,-14 -9,-71 22,-101c43,-41 49,-55 65,-152c16,-99 8,-119 -30,-76c-21,25 -23,31 -10,45c18,20 18,70 -1,95c-15,19 -15,19 -31,-1c-15,-20 -15,-50 1,-90c6,-14 -3,-10 -29,15c-58,54 -66,76 -61,172c4,73 3,76 -4,25c-10,-71 -13,-74 -47,-48c-28,22 -84,29 -84,10c0,-26 23,-49 60,-60c39,-12 68,-34 58,-45c-3,-2 -18,1 -34,7c-40,16 -114,28 -114,18c0,-15 58,-39 94,-39c53,0 105,-28 79,-43c-5,-2 -3,-3 2,-2c6,2 24,-10 39,-26c33,-33 30,-35 -21,-14c-69,29 -147,5 -130,-40c7,-18 67,-21 84,-4c8,8 13,8 17,0c10,-15 59,-14 75,2c15,14 32,-5 62,-68c30,-64 19,-195 -15,-195c-22,0 -200,146 -221,181c-16,28 -70,151 -92,209c-3,8 7,0 23,-18c31,-34 79,-49 104,-33c20,14 8,24 -67,54c-42,16 -64,21 -67,13c-2,-6 -7,4 -11,22c-4,18 -12,35 -17,38c-6,4 -8,-3 -4,-17c6,-23 6,-23 -5,-3c-19,36 -139,84 -139,55c0,-27 115,-96 143,-86c18,7 52,-67 76,-165c11,-41 18,-76 16,-78c-1,-1 -23,7 -49,18c-26,11 -59,20 -74,20c-24,0 -25,1 -7,13c17,13 17,15 -6,30c-13,10 -37,17 -54,17l-30,-1l28,-24c15,-14 23,-25 17,-25c-6,0 -27,-7 -47,-15c-59,-25 -29,-40 80,-40c108,-1 153,-19 204,-83l32,-39l-83,-7c-45,-4 -89,-5 -97,-3c-8,3 -73,24 -145,47c-120,40 -134,42 -163,30c-64,-26 -24,-49 56,-32c48,10 58,9 103,-12c50,-23 55,-36 14,-36c-18,0 -54,-36 -54,-55c0,-16 77,-3 99,18c24,21 32,23 96,17c54,-5 64,-9 46,-15c-53,-18 -107,-53 -119,-77c-13,-27 1,-128 18,-128c16,0 32,61 26,99c-5,35 -3,42 20,60c40,31 61,28 35,-5c-24,-31 -25,-36 -10,-86c12,-47 21,-47 44,-4c13,23 16,45 13,73c-6,45 -2,55 29,72c41,21 57,15 34,-15c-19,-24 -30,-84 -15,-84c22,0 66,39 71,63c7,35 15,34 57,-8c62,-62 70,-86 74,-232c4,-143 -10,-219 -48,-264l-20,-24l4,61c2,34 6,67 10,73c4,6 1,11 -7,11c-8,0 -17,9 -20,21c-3,12 -10,18 -17,14c-6,-4 -9,-14 -5,-22c7,-20 -22,-53 -47,-53c-17,0 -20,5 -22,39c-2,23 -26,25 -26,2c0,-11 -4,-22 -9,-26c-6,-3 -6,-18 0,-38c20,-70 9,-107 -33,-107c-12,0 0,99 14,118c7,8 7,12 -1,12c-6,0 -14,18 -17,40c-16,98 -58,1 -48,-108l7,-69l-62,-13c-141,-30 -35,-37 209,-13c58,5 64,4 52,-10c-8,-9 -23,-18 -35,-20c-14,-3 -8,-5 13,-5c19,-1 46,5 60,13c45,26 78,19 97,-20c19,-39 29,-44 38,-16c12,38 30,43 73,21c23,-12 51,-20 64,-18c20,3 18,6 -17,21c-28,13 -36,20 -26,26c16,10 65,0 106,-23c17,-9 37,-16 45,-16c8,1 2,8 -13,16c-43,23 -28,26 77,15c184,-21 278,-8 141,20c-62,12 -65,14 -65,41c0,16 5,38 10,49c8,14 7,31 -4,62c-14,41 -42,59 -40,25c1,-10 -2,-18 -6,-18c-13,0 2,-84 16,-93c8,-4 14,-18 13,-30c0,-21 -1,-21 -9,-2c-8,18 -9,18 -9,2c-1,-14 -8,-18 -28,-15c-27,3 -28,6 -31,63c-3,59 -3,59 17,41c12,-11 21,-14 21,-9c0,6 -7,16 -15,23c-8,7 -15,20 -15,30c0,9 -3,20 -7,24c-4,4 -8,15 -8,23c0,9 -6,18 -12,20c-8,3 -13,-4 -13,-15c0,-11 -7,-25 -15,-32c-18,-15 -84,-15 -99,0c-5,5 -15,10 -20,10c-31,-1 41,-40 73,-40c23,0 38,-5 39,-12c1,-7 4,-36 8,-65l6,-52l-29,8c-100,29 -128,89 -128,271c0,124 2,139 25,185c28,56 77,89 149,101l43,7l-6,-30c-6,-24 -2,-37 19,-62c32,-37 45,-33 45,15c0,19 5,34 10,34c20,0 10,29 -17,50c-24,19 -38,21 -95,18c-72,-4 -83,2 -45,26c59,37 131,26 167,-27c23,-34 101,-99 109,-91c3,2 -20,27 -50,54c-46,43 -49,48 -21,35c47,-23 40,-14 -24,31l-57,38l54,17c55,16 163,68 144,69c-6,0 -49,-11 -95,-24c-47,-13 -105,-27 -130,-31l-45,-7l60,61c33,34 61,57 63,52c5,-15 49,9 68,36c20,32 13,38 -27,24c-18,-6 -66,-11 -109,-11c-42,0 -100,-7 -129,-16c-66,-19 -76,-11 -31,27c27,23 40,28 60,22c32,-9 76,-8 119,2c25,6 32,5 27,-3c-5,-8 1,-12 18,-12c38,0 72,19 85,47c11,25 11,25 -21,18c-50,-11 -230,-14 -193,-4c36,11 92,55 82,65c-16,16 -94,-20 -139,-64c-35,-34 -48,-41 -48,-29c0,10 23,40 50,68c37,37 50,57 50,79c0,64 -50,29 -59,-42c-8,-54 -31,-64 -31,-13c0,29 -3,36 -17,33c-25,-5 -30,-58 -7,-75c16,-12 16,-16 -14,-55c-18,-24 -42,-62 -54,-85c-18,-35 -38,-56 -38,-39c0,2 -5,27 -10,56c-7,37 -7,65 1,94c15,54 81,120 136,135c48,13 59,24 83,88c15,41 23,49 51,55c37,7 69,40 69,69c0,48 -99,0 -103,-50c-2,-28 -79,-107 -157,-161c-30,-21 -63,-47 -74,-59c-24,-27 -33,-20 -41,32c-10,69 11,115 75,159c56,38 100,82 100,99c0,26 -51,5 -100,-44zM2250,2255c0,-2 -10,-9 -22,-15c-22,-11 -22,-10 -4,4c21,17 26,19 26,11zM2393,2170c24,0 -85,-101 -172,-159c-36,-24 -76,-53 -89,-65c-30,-27 -44,-8 -35,49c16,111 44,143 86,101c26,-26 43,-31 71,-20c26,10 -7,64 -40,64c-14,0 -22,4 -19,10c10,17 33,11 61,-15c33,-30 65,-32 89,-5c18,20 18,21 -1,36c-18,15 -18,15 6,10c14,-3 33,-6 43,-6zM2051,1812c-6,-2 -11,-10 -11,-18c0,-8 -4,-14 -10,-14c-5,0 -11,-15 -11,-32c-1,-18 -6,3 -11,46c-7,68 -6,81 7,88c8,5 15,21 16,36c0,24 1,25 9,7c8,-19 9,-18 11,5c2,14 5,-6 6,-45c3,-43 0,-71 -6,-73zM2390,1885c0,-3 -2,-5 -5,-5c-3,0 -5,2 -5,5c0,3 2,5 5,5c3,0 5,-2 5,-5zM2077,1863c-4,-3 -7,0 -7,7c0,7 3,10 7,7c3,-4 3,-10 0,-14zM1550,1825c0,-3 -2,-5 -5,-5c-3,0 -5,2 -5,5c0,3 2,5 5,5c3,0 5,-2 5,-5zM2000,1765c0,-3 -2,-5 -5,-5c-3,0 -5,2 -5,5c0,3 2,5 5,5c3,0 5,-2 5,-5zM2030,1490c0,-85 -4,-130 -11,-130c-7,0 -9,43 -7,130c1,72 6,130 10,130c5,0 8,-58 8,-130zM2050,1525c0,-3 -2,-5 -5,-5c-3,0 -5,2 -5,5c0,3 2,5 5,5c3,0 5,-2 5,-5zM2047,1383c-2,-21 -4,-4 -4,37c0,41 2,58 4,38c2,-21 2,-55 0,-75zM1822,1416c1,-51 -9,-66 -49,-66c-15,0 -20,5 -18,18c2,9 7,34 10,54c4,28 11,38 28,40c29,5 26,8 29,-46zM2067,1388c-2,-13 -4,-5 -4,17c-1,22 1,32 4,23c2,-10 2,-28 0,-40zM1991,1421c6,9 8,0 8,-26c-1,-23 -4,-31 -7,-20l-5,20l-8,-20c-6,-15 -8,-10 -8,20c1,22 3,34 6,26c5,-11 7,-11 14,0zM1846,1372c-11,-10 -15,4 -8,28l7,25l3,-23c2,-13 1,-26 -2,-30zM2293,1370c3,-11 1,-23 -4,-26c-5,-3 -9,6 -9,20c0,31 6,34 13,6zM1670,1360c0,-11 -4,-20 -9,-20c-5,0 -7,9 -4,20c3,11 7,20 9,20c2,0 4,-9 4,-20zM2100,1365c0,-3 -2,-5 -5,-5c-3,0 -5,2 -5,5c0,3 2,5 5,5c3,0 5,-2 5,-5zM2020,1830c0,-7 3,-10 7,-7c3,4 3,10 0,14c-4,3 -7,0 -7,-7zM1304,2618c-4,-7 -3,-8 4,-4c7,4 12,9 12,12c0,8 -9,4 -16,-8zM1731,2612c-7,-13 -8,-29 -2,-44c8,-21 9,-20 16,15c9,44 2,58 -14,29zM1660,2591c0,-32 22,-61 46,-61c21,0 17,33 -7,64c-27,34 -39,33 -39,-3zM1930,2583c0,-28 45,-113 59,-113c12,0 21,26 21,57c0,25 -48,83 -69,83c-6,0 -11,-12 -11,-27zM1761,2575c-6,-16 -14,-35 -16,-42c-7,-19 16,-74 29,-70c22,7 31,75 14,110l-16,32zM2458,2589c-11,-6 -18,-22 -18,-39c0,-28 1,-29 27,-19c31,12 43,26 43,52c0,19 -25,22 -52,6zM1834,2550c9,-46 26,-67 38,-45c13,21 1,53 -24,66c-20,11 -21,9 -14,-21zM2170,2561c-13,-25 -13,-58 0,-66c5,-3 7,-13 4,-23c-5,-15 -4,-15 8,-1c7,8 21,18 32,22c14,6 17,13 11,35c-13,51 -37,66 -55,33zM1246,2555c-9,-26 -7,-32 5,-12c6,10 9,21 6,23c-2,3 -7,-2 -11,-11zM1520,2554c0,-20 34,-65 53,-69c44,-9 56,-10 56,-2c3,28 -2,38 -21,51c-24,14 -88,29 -88,20zM2381,2534c-25,-21 -31,-33 -31,-65c0,-48 18,-51 54,-8c17,20 26,43 26,65c0,41 -9,42 -49,8zM2504,2520c-60,-26 -76,-73 -22,-68c34,3 73,44 66,70c-3,13 -9,13 -44,-2zM1455,2508c11,-33 24,-47 66,-69c44,-22 59,-11 35,26c-18,27 -49,49 -84,60c-22,6 -23,5 -17,-17zM1652,2508c16,-24 66,-54 75,-45c11,11 -19,46 -48,56c-43,15 -44,14 -27,-11zM2091,2498c-32,-33 -44,-99 -20,-114c21,-12 61,41 66,89c7,57 -7,65 -46,25zM2303,2500c-26,-23 -28,-36 -13,-76c17,-44 42,-11 38,50l-3,47zM1220,2500c0,-7 3,-10 7,-7c3,4 3,10 0,14c-4,3 -7,0 -7,-7zM1170,2475c0,-3 2,-5 5,-5c3,0 5,2 5,5c0,3 -2,5 -5,5c-3,0 -5,-2 -5,-5zM1200,2475c0,-3 2,-5 5,-5c3,0 5,2 5,5c0,3 -2,5 -5,5c-3,0 -5,-2 -5,-5zM1365,2448c13,-43 60,-63 72,-31c8,19 -30,53 -59,53c-15,0 -18,-5 -13,-22zM1594,2444c3,-9 6,-19 6,-23c0,-4 9,-17 20,-29c25,-27 60,-15 60,21c0,32 -18,47 -58,47c-27,0 -33,-3 -28,-16zM1110,2367c-60,-129 -81,-219 -87,-382c-3,-86 -1,-154 5,-175c9,-28 10,-16 5,60c-9,163 30,367 98,508c17,35 28,66 25,69c-3,4 -24,-33 -46,-80zM1850,2431c-19,-37 -2,-91 30,-91c14,0 32,59 26,85c-8,30 -41,34 -56,6zM2503,2443c-26,-5 -63,-48 -63,-72c0,-9 3,-12 8,-6c4,6 18,11 32,13c31,3 74,34 78,56c4,16 -8,18 -55,9zM2392,2419c-38,-25 -41,-62 -5,-67c25,-4 59,39 50,62c-3,8 -1,17 6,20c8,3 6,5 -3,5c-8,0 -30,-9 -48,-20zM1456,2353c9,-21 18,-43 21,-50c7,-16 31,-24 39,-12c16,26 -30,99 -63,99c-11,0 -10,-8 3,-37zM2299,2364c-13,-15 -18,-25 -10,-22c13,4 49,48 39,48c-2,0 -15,-12 -29,-26zM2579,2370c-30,-25 -13,-40 47,-40c43,0 82,28 69,49c-11,19 -91,13 -116,-9zM2486,2359c-43,-21 -86,-57 -86,-72c0,-12 69,1 96,18c19,12 41,61 32,70c-2,2 -21,-5 -42,-16zM2850,2355c0,-3 2,-5 5,-5c3,0 5,2 5,5c0,3 -2,5 -5,5c-3,0 -5,-2 -5,-5zM1360,2341c0,-10 57,-61 69,-61c4,0 15,-16 24,-35c13,-26 23,-35 42,-35c35,0 31,14 -9,40c-20,12 -33,27 -30,34c3,7 0,25 -5,39c-9,23 -16,27 -51,27c-22,0 -40,-4 -40,-9zM1547,2303c10,-71 24,-103 53,-118c40,-21 40,-20 40,29c0,48 -20,81 -68,109l-31,17zM2884,2328c2,-7 8,-26 15,-43c27,-66 39,-108 34,-121c-3,-8 -1,-14 3,-14c5,0 10,-10 11,-22c1,-13 5,-45 9,-73c4,-27 7,-97 6,-155c0,-91 -6,-131 -29,-200c-3,-8 -7,-28 -8,-44c-2,-17 -9,-35 -16,-40c-8,-6 -15,-23 -16,-38c-2,-30 -99,-210 -138,-257c-14,-16 -25,-32 -25,-35c0,-4 -15,-23 -32,-43c-188,-209 -363,-297 -618,-310c-242,-12 -436,56 -637,223c-49,41 -93,70 -101,67c-8,-4 -12,0 -10,8c1,8 -18,43 -43,79c-56,79 -119,187 -119,203c0,7 -9,18 -20,25c-11,7 -20,21 -20,31c0,10 -7,36 -16,57c-9,21 -18,47 -20,58c-2,12 -8,22 -13,24c-5,2 -7,12 -4,22c3,11 2,28 -2,37c-6,15 -9,13 -16,-10c-8,-29 8,-101 50,-220c24,-68 91,-197 103,-197c4,0 8,-6 8,-13c0,-40 256,-287 297,-287c2,0 1,5 -3,11c-4,7 11,0 32,-15c21,-14 44,-26 51,-26c6,0 15,-5 19,-12c5,-7 3,-8 -7,-3c-11,7 -11,5 1,-9c8,-10 16,-14 18,-8c2,6 15,-1 29,-14c21,-20 29,-22 42,-12c9,7 13,8 9,4c-5,-5 1,-16 12,-23c18,-12 24,-13 37,-1c15,11 16,11 10,-5c-7,-19 8,-24 19,-6c4,8 10,6 17,-6c5,-10 12,-13 16,-8c4,6 35,6 86,-2c44,-6 118,-10 165,-9c47,1 90,-3 97,-8c7,-5 18,-6 25,-2c6,4 21,9 32,10c51,7 86,17 86,25c0,5 6,6 13,4c16,-6 202,87 200,100c0,6 11,19 25,30c25,18 26,18 12,0c-14,-18 -14,-18 15,1c43,27 52,37 47,53c-3,9 0,11 8,6c27,-17 233,242 233,292c0,7 4,13 9,13c5,0 6,5 3,10c-3,6 -2,10 3,10c15,0 79,175 85,235c2,17 7,37 11,44c4,6 5,23 2,36c-3,13 -2,27 4,30c6,4 10,60 10,135c0,75 -4,131 -10,135c-6,3 -7,17 -4,30c3,12 1,26 -6,30c-6,4 -8,15 -5,26c4,11 2,19 -5,19c-6,0 -8,4 -5,10c8,13 -24,119 -44,147c-18,25 -31,30 -27,11zM2737,1243c-4,-3 -7,0 -7,7c0,7 3,10 7,7c3,-4 3,-10 0,-14zM1370,1185c0,-3 -2,-5 -5,-5c-3,0 -5,2 -5,5c0,3 2,5 5,5c3,0 5,-2 5,-5zM2680,1175c0,-3 -2,-5 -5,-5c-3,0 -5,2 -5,5c0,3 2,5 5,5c3,0 5,-2 5,-5zM1447,1113c-4,-3 -10,-3 -14,0c-3,4 0,7 7,7c7,0 10,-3 7,-7zM1475,1090c3,-5 4,-10 1,-10c-3,0 -8,5 -11,10c-3,6 -4,10 -1,10c3,0 8,-4 11,-10zM2587,1073c-4,-3 -7,0 -7,7c0,7 3,10 7,7c3,-4 3,-10 0,-14zM2466,999c-15,-4 -33,-11 -40,-16c-6,-4 -1,2 13,14c13,12 31,19 40,15c11,-4 8,-8 -13,-13zM1670,975c0,-3 -2,-5 -5,-5c-3,0 -5,2 -5,5c0,3 2,5 5,5c3,0 5,-2 5,-5zM2390,965c0,-3 -2,-5 -5,-5c-3,0 -5,2 -5,5c0,3 2,5 5,5c3,0 5,-2 5,-5zM1737,933c-4,-3 -7,0 -7,7c0,7 3,10 7,7c3,-4 3,-10 0,-14zM2320,945c0,-3 -2,-5 -5,-5c-3,0 -5,2 -5,5c0,3 2,5 5,5c3,0 5,-2 5,-5zM2280,925c0,-3 -2,-5 -5,-5c-3,0 -5,2 -5,5c0,3 2,5 5,5c3,0 5,-2 5,-5zM2245,910c-3,-5 -10,-10 -16,-10c-5,0 -9,5 -9,10c0,6 7,10 16,10c8,0 12,-4 9,-10zM2187,903c-4,-3 -10,-3 -14,0c-3,4 0,7 7,7c7,0 10,-3 7,-7zM2089,2296c-7,-14 -8,-37 -5,-52l7,-27l25,23c31,30 34,80 4,80c-12,0 -25,-10 -31,-24zM2546,2298c-13,-13 -28,-34 -31,-47c-7,-23 -5,-24 26,-18c32,7 89,56 89,77c0,19 -59,10 -84,-12zM1338,2304c-11,-10 5,-45 25,-55c35,-19 77,-28 77,-17c0,30 -85,90 -102,72zM2655,2276c-33,-9 -40,-16 -40,-36c0,-40 38,-38 69,3c39,51 37,53 -29,33zM1260,2260c0,-5 9,-15 19,-22c10,-6 17,-16 15,-22c-8,-24 47,-49 84,-40c48,12 51,30 7,44c-19,6 -40,20 -45,31c-11,20 -80,28 -80,9zM1320,2225c0,-3 -2,-5 -5,-5c-3,0 -5,2 -5,5c0,3 2,5 5,5c3,0 5,-2 5,-5zM1517,2249c7,-7 15,-10 18,-7c3,3 -2,9 -12,12c-14,6 -15,5 -6,-5zM2543,2210c-41,-25 -60,-58 -38,-66c23,-9 42,2 60,36c23,44 16,53 -22,30zM2573,2171l-22,-39l39,19c41,20 52,42 24,53c-9,3 -16,6 -17,6c-1,0 -12,-18 -24,-39zM1403,2168c-13,-6 -23,-15 -23,-20c0,-13 67,-9 79,5c21,26 -14,35 -56,15zM2686,2170c-51,-7 -55,-23 -10,-39c34,-12 38,-12 61,12c23,22 23,25 6,28c-10,3 -36,2 -57,-1zM1807,2142c-24,-26 -21,-38 13,-52c33,-14 78,-2 102,27c31,37 -82,61 -115,25zM2582,2125c-12,-9 -27,-13 -32,-10c-6,3 -10,4 -10,1c0,-10 72,-36 100,-36c34,0 56,22 38,38c-25,20 -72,23 -96,7zM1273,2118c-13,-6 -23,-14 -23,-18c0,-11 57,-33 68,-26c5,3 28,-3 50,-14c76,-37 106,-19 59,36c-27,31 -113,43 -154,22zM2462,2119c-23,-9 -39,-35 -29,-46c8,-7 63,15 77,32c14,16 -17,25 -48,14zM1535,2081c-34,-14 -52,-41 -34,-52c8,-5 23,-9 34,-9c28,0 90,39 79,50c-15,14 -57,20 -79,11zM2637,2063c-12,-12 25,-42 59,-49c19,-3 34,-12 34,-20c0,-16 18,-18 39,-5c26,16 -45,81 -89,81c-20,0 -40,-3 -43,-7zM2524,2045c-19,-15 -19,-15 1,-28c30,-18 57,-24 88,-18l29,6l-22,28c-24,31 -65,36 -96,12zM1645,2041c-39,-11 -58,-28 -52,-45c7,-19 72,-22 83,-4c5,7 3,8 -7,3c-11,-7 -12,-6 -3,6c17,21 3,46 -21,40zM2443,2003c-21,-8 -15,-21 24,-48c46,-30 117,-36 111,-8c-6,31 -101,71 -135,56zM1354,1993c-12,-2 -31,-14 -42,-26l-21,-22l42,-2c44,-3 87,18 87,42c0,15 -20,17 -66,8zM2614,1968c-15,-25 102,-105 123,-84c12,12 -27,77 -53,86c-34,13 -61,13 -70,-2zM1280,1903c-39,-32 -25,-45 38,-33c40,7 76,36 66,52c-12,18 -74,7 -104,-19zM2537,1913c-14,-13 -6,-43 14,-54c15,-8 24,-8 32,0c6,6 19,11 28,11c24,0 33,18 19,35c-12,15 -81,21 -93,8zM1443,1882c-22,-14 -20,-57 3,-60c30,-4 78,36 63,54c-12,15 -47,18 -66,6zM1358,1864c-38,-20 -35,-34 7,-34c31,0 55,19 55,44c0,11 -35,5 -62,-10zM2642,1863c-28,-5 -40,-32 -21,-44c24,-15 76,-10 100,9l22,19l-33,11c-18,7 -36,11 -39,11c-3,-1 -16,-4 -29,-6zM2444,1823c-11,-59 45,-145 60,-91c12,47 6,84 -17,106c-31,29 -35,28 -43,-15zM2560,1815c0,-28 50,-85 74,-85c16,0 3,49 -17,68c-21,20 -57,30 -57,17zM1404,1796c-18,-14 -16,-15 23,-14c23,0 48,7 54,14c16,20 -50,19 -77,0zM2530,1756c0,-44 5,-60 26,-85c33,-39 40,-39 48,1c5,26 0,42 -29,85c-19,29 -37,53 -40,53c-3,0 -5,-24 -5,-54zM1486,1777c-28,-22 -28,-23 -13,-60c27,-62 52,-35 45,46l-3,37zM1401,1770c-41,-10 -59,-27 -70,-68c-9,-29 -7,-32 11,-32c24,0 98,71 98,94c0,9 -1,16 -2,15c-2,-1 -18,-5 -37,-9zM1433,1718c-23,-24 -32,-78 -13,-78c14,0 42,58 38,82c-3,19 -4,19 -25,-4zM1533,1023c4,-3 10,-3 14,0c3,4 0,7 -7,7c-7,0 -10,-3 -7,-7zM1560,1005c0,-3 2,-5 5,-5c3,0 5,2 5,5c0,3 -2,5 -5,5c-3,0 -5,-2 -5,-5zM1580,995c0,-3 2,-5 5,-5c3,0 5,2 5,5c0,3 -2,5 -5,5c-3,0 -5,-2 -5,-5zM1890,885c0,-3 2,-5 5,-5c3,0 5,2 5,5c0,3 -2,5 -5,5c-3,0 -5,-2 -5,-5zM1920,885c0,-3 2,-5 5,-5c3,0 5,2 5,5c0,3 -2,5 -5,5c-3,0 -5,-2 -5,-5zM2035,880l-50,-7l47,-1c26,-1 50,3 53,8c3,6 5,9 3,8c-2,0 -25,-4 -53,-8z"></path></g></g></g></g></g></g></svg>